<svg xmlns="http://www.w3.org/2000/svg" version="1.1" xmlns:xlink="http://www.w3.org/1999/xlink" xmlns:svgjs="http://svgjs.dev/svgjs" width="3840" height="2160" preserveAspectRatio="none" viewBox="0 0 3840 2160"><g mask="url(&quot;#SvgjsMask1106&quot;)" fill="none"><rect width="3840" height="2160" x="0" y="0" fill="rgba(55, 55, 55, 1)"></rect><path d="M0,1704.031C313.02,1674.808,483.286,1332.315,736.355,1145.79C968.996,974.321,1304.465,913.424,1427.475,651.906C1550.66,390.016,1397.355,91.242,1367.799,-196.66C1336.743,-499.174,1442.337,-847.548,1249.411,-1082.62C1056.307,-1317.91,701.714,-1314.105,402.943,-1372.3C130.235,-1425.418,-160.108,-1521.554,-412.962,-1406.419C-658.701,-1294.523,-716.774,-978.224,-899.363,-779.303C-1089.628,-572.019,-1429.031,-487.269,-1505.254,-216.423C-1582,56.28,-1399.359,327.634,-1283.662,586.229C-1167.107,846.743,-1045.585,1104.63,-830.352,1292.053C-592.52,1499.156,-314.001,1733.345,0,1704.031" fill="#2a2a2a"></path><path d="M3840 3539.001C4093.504 3528.944 4250.433 3267.6440000000002 4459.132 3123.388 4659.192 2985.103 4942.117 2930.673 5041.325 2708.627 5140.467000000001 2486.728 5023.601000000001 2233.739 4961.615 1998.7359999999999 4906.092000000001 1788.2350000000001 4825.267 1592.8490000000002 4700.0470000000005 1414.7649999999999 4563.053 1219.9360000000001 4431.086 992.194 4203.804 920.999 3975.722 849.5540000000001 3742.74 980.6389999999999 3511.897 1042.584 3275.0119999999997 1106.151 3023.142 1132.068 2834.248 1288.511 2627.452 1459.78 2415.258 1686.04 2410.807 1954.513 2406.379 2221.618 2668.362 2404.235 2812.0150000000003 2629.465 2933.098 2819.308 3019.833 3024.592 3188.471 3173.799 3378.786 3342.1859999999997 3586.0860000000002 3549.075 3840 3539.001" fill="#444444"></path></g><defs><mask id="SvgjsMask1106"><rect width="3840" height="2160" fill="#ffffff"></rect></mask></defs></svg>